<?xml version="1.0" encoding="UTF-8" standalone="no"?>
<!-- Created with Inkscape (http://www.inkscape.org/) -->

<svg
   xmlns:dc="http://purl.org/dc/elements/1.1/"
   xmlns:cc="http://creativecommons.org/ns#"
   xmlns:rdf="http://www.w3.org/1999/02/22-rdf-syntax-ns#"
   xmlns:svg="http://www.w3.org/2000/svg"
   xmlns="http://www.w3.org/2000/svg"
   xmlns:sodipodi="http://sodipodi.sourceforge.net/DTD/sodipodi-0.dtd"
   xmlns:inkscape="http://www.inkscape.org/namespaces/inkscape"
   width="76.643997mm"
   height="76.665001mm"
   viewBox="0 0 76.643997 76.665001"
   version="1.1"
   id="svg8"
   inkscape:version="0.92.3 (2405546, 2018-03-11)"
   sodipodi:docname="design.svg">
  <defs
     id="defs2" />
  <sodipodi:namedview
     id="base"
     pagecolor="#ffffff"
     bordercolor="#666666"
     borderopacity="1.0"
     inkscape:pageopacity="0.0"
     inkscape:pageshadow="2"
     inkscape:zoom="0.68684764"
     inkscape:cx="396.85039"
     inkscape:cy="561.25984"
     inkscape:document-units="mm"
     inkscape:current-layer="layer1"
     showgrid="false"
     inkscape:window-width="1680"
     inkscape:window-height="987"
     inkscape:window-x="1272"
     inkscape:window-y="-8"
     inkscape:window-maximized="1" />
  <metadata
     id="metadata5">
    <rdf:RDF>
      <cc:Work
         rdf:about="">
        <dc:format>image/svg+xml</dc:format>
        <dc:type
           rdf:resource="http://purl.org/dc/dcmitype/StillImage" />
        <dc:title></dc:title>
      </cc:Work>
    </rdf:RDF>
  </metadata>
  <g
     inkscape:label="Layer 1"
     inkscape:groupmode="layer"
     id="layer1"
     transform="translate(0,-220.335)">
    <path
       style="fill:#000000;stroke-width:0.04233344"
       d="m 0,296.92298 c 8.4e-5,-0.0502 0.828731,-4.97762 1.841455,-10.94979 l 1.841314,-10.85851 27.389707,-27.38984 27.389705,-27.38984 9.09108,9.09112 9.09108,9.09113 -27.39064,27.39077 -27.390633,27.39077 -10.857521,1.83985 c -5.971637,1.01193 -10.890858,1.84791 -10.931604,1.85774 -0.05321,0.0128 -0.07404,-0.008 -0.07394,-0.0734 z m 13.334859,-6.46737 c 2.246841,-0.37841 4.093883,-0.69482 4.104536,-0.70313 0.01065,-0.008 -2.274855,-2.30942 -5.078909,-5.11356 -2.8040516,-2.80414 -5.1104926,-5.08461 -5.1254226,-5.06771 -0.01493,0.0169 -0.345722,1.91432 -0.735093,4.21649 -0.5897824,3.48711 -0.6984894,4.1949 -0.6512794,4.24054 2.3316584,2.25405 3.2839494,3.14815 3.3371714,3.13325 0.03511,-0.01 1.9021546,-0.32748 4.1489966,-0.70588 z m 54.895762,-54.38312 -2.42344,-2.42373 -24.86027,24.86036 -24.860262,24.86035 2.423446,2.42374 2.423445,2.42373 24.860271,-24.86036 24.86026,-24.86036 z m -29.77099,19.92857 24.84957,-24.84973 -2.41284,-2.41314 -2.41285,-2.41314 -24.86026,24.86036 -24.8602676,24.86036 2.4022146,2.40251 c 1.321219,1.32137 2.411809,2.4025 2.423535,2.4025 0.01173,0 11.203629,-11.18238 24.870898,-24.84972 z"
       id="path826"
       inkscape:connector-curvature="0" />
  </g>
</svg>
