<?xml version="1.0" encoding="UTF-8" standalone="no"?>
<!-- Created with Inkscape (http://www.inkscape.org/) -->

<svg
   xmlns:dc="http://purl.org/dc/elements/1.1/"
   xmlns:cc="http://creativecommons.org/ns#"
   xmlns:rdf="http://www.w3.org/1999/02/22-rdf-syntax-ns#"
   xmlns:svg="http://www.w3.org/2000/svg"
   xmlns="http://www.w3.org/2000/svg"
   xmlns:sodipodi="http://sodipodi.sourceforge.net/DTD/sodipodi-0.dtd"
   xmlns:inkscape="http://www.inkscape.org/namespaces/inkscape"
   width="66.204002mm"
   height="81.011002mm"
   viewBox="0 0 66.204002 81.011002"
   version="1.1"
   id="svg8"
   inkscape:version="0.92.3 (2405546, 2018-03-11)"
   sodipodi:docname="idea.svg">
  <defs
     id="defs2" />
  <sodipodi:namedview
     id="base"
     pagecolor="#ffffff"
     bordercolor="#666666"
     borderopacity="1.0"
     inkscape:pageopacity="0.0"
     inkscape:pageshadow="2"
     inkscape:zoom="1.7805651"
     inkscape:cx="254.69948"
     inkscape:cy="113.59532"
     inkscape:document-units="mm"
     inkscape:current-layer="layer1"
     showgrid="false"
     inkscape:window-width="1680"
     inkscape:window-height="987"
     inkscape:window-x="1272"
     inkscape:window-y="-8"
     inkscape:window-maximized="1" />
  <metadata
     id="metadata5">
    <rdf:RDF>
      <cc:Work
         rdf:about="">
        <dc:format>image/svg+xml</dc:format>
        <dc:type
           rdf:resource="http://purl.org/dc/dcmitype/StillImage" />
        <dc:title></dc:title>
      </cc:Work>
    </rdf:RDF>
  </metadata>
  <g
     inkscape:label="Layer 1"
     inkscape:groupmode="layer"
     id="layer1"
     transform="translate(0,-215.989)">
    <path
       style="fill:#000000;stroke-width:0.04233333"
       d="m 29.775773,296.96786 c -0.205815,-0.0604 -0.527499,-0.2954 -0.680417,-0.49697 -0.290484,-0.3829 -0.343014,-0.9611 -0.126189,-1.38899 0.06003,-0.11846 0.205564,-0.30208 0.323403,-0.40803 0.381534,-0.34303 0.199818,-0.32742 3.812095,-0.32742 3.612278,0 3.430562,-0.0156 3.812096,0.32742 0.710908,0.63917 0.58097,1.72581 -0.262217,2.19284 l -0.226712,0.12557 -3.259667,0.007 c -1.886055,0.004 -3.315596,-0.009 -3.392392,-0.0317 z m -2.993072,-4.29563 c -0.354623,-0.13006 -0.684916,-0.46551 -0.811434,-0.82411 -0.08371,-0.23726 -0.08029,-0.65371 0.0075,-0.91255 0.09875,-0.29117 0.507969,-0.69844 0.798686,-0.79488 0.196003,-0.065 0.713665,-0.0699 6.392332,-0.0597 l 6.179059,0.011 0.198751,0.0979 c 0.253669,0.12495 0.509735,0.38102 0.634686,0.63469 0.143993,0.29233 0.141055,0.87304 -0.0059,1.17175 -0.142477,0.28954 -0.420975,0.54861 -0.703321,0.65425 -0.231703,0.0867 -0.272534,0.0872 -6.380523,0.0843 -5.174319,-0.002 -6.173043,-0.0124 -6.309793,-0.0626 z m 0.222598,-4.21006 c -0.441841,-0.0759 -0.855835,-0.41771 -1.014193,-0.83736 -0.07309,-0.1937 -0.08771,-0.30576 -0.07301,-0.55969 0.02955,-0.51052 0.288712,-0.90659 0.751907,-1.1491 l 0.1905,-0.0997 h 6.244165 6.244167 l 0.216222,0.11408 c 0.118922,0.0627 0.303318,0.21095 0.409765,0.32934 0.257031,0.28588 0.342549,0.54701 0.318004,0.97101 -0.03114,0.53785 -0.285615,0.90405 -0.793894,1.14246 l -0.234764,0.11011 -6.0325,0.006 c -3.317874,0.003 -6.119739,-0.009 -6.226366,-0.0272 z m 1.763621,-4.4892 c -1.097431,-0.13079 -2.0562,-0.59836 -2.860893,-1.39518 -0.602769,-0.59688 -0.965552,-1.16197 -1.206203,-1.87886 -0.237566,-0.7077 -0.239599,-0.73132 -0.275484,-3.20114 -0.0288,-1.98184 -0.04601,-2.39791 -0.122114,-2.9507 -0.391395,-2.84306 -1.464059,-5.49364 -3.140247,-7.75964 -0.569381,-0.76973 -0.929743,-1.18242 -1.90971,-2.18705 -1.244426,-1.27573 -1.885852,-2.05974 -2.713166,-3.31628 -1.798017,-2.73086 -2.884784,-5.91467 -3.163785,-9.26868 -0.08909,-1.07103 -0.04838,-2.93364 0.0875,-4.00282 0.685861,-5.39691 3.629656,-10.3312 8.108648,-13.59144 5.176391,-3.76788 11.865298,-4.75744 17.97426,-2.65913 4.392134,1.50861 8.152096,4.56754 10.565024,8.59521 2.34766,3.91872 3.251658,8.59354 2.548722,13.18012 -0.512886,3.34654 -1.888402,6.50199 -3.995142,9.16491 -0.520615,0.65806 -0.81788,0.9855 -1.82551,2.01083 -0.514829,0.52388 -1.101874,1.15186 -1.30454,1.39553 -1.728254,2.07789 -2.914095,4.59335 -3.453227,7.32514 -0.231513,1.17307 -0.267602,1.66347 -0.300622,4.08516 -0.0336,2.46408 -0.03992,2.5359 -0.282774,3.21225 -0.504076,1.40386 -1.643317,2.53706 -3.018654,3.00265 -0.793844,0.26874 -0.544983,0.256 -5.185834,0.26543 -2.328333,0.005 -4.365143,-0.007 -4.526245,-0.0263 z m 8.66054,-3.69303 c 0.275954,-0.13551 0.513689,-0.37944 0.643559,-0.66031 0.08743,-0.18908 0.09135,-0.26773 0.116332,-2.33351 0.02789,-2.30665 0.06138,-2.78056 0.29158,-4.12664 0.596328,-3.48697 2.127309,-6.7876 4.398877,-9.48353 0.176564,-0.20955 0.788967,-0.85871 1.360886,-1.44259 1.461681,-1.49222 2.226644,-2.47524 3.018273,-3.87866 1.977852,-3.50638 2.554762,-7.84037 1.568256,-11.78141 -1.439012,-5.74878 -5.912473,-10.27232 -11.637391,-11.76768 -3.245117,-0.84764 -6.728215,-0.66415 -9.800165,0.51627 -5.26431,2.02285 -9.144803,6.65102 -10.196896,12.16157 -0.208715,1.09319 -0.235924,1.43439 -0.236312,2.96334 -3.81e-4,1.52942 0.0252,1.85461 0.234821,2.9845 0.461864,2.4895 1.57083,4.9663 3.10852,6.94266 0.462249,0.59412 0.773783,0.94096 1.672959,1.86253 1.220322,1.25071 1.927818,2.11667 2.724826,3.33511 0.545431,0.83384 0.865218,1.40063 1.318938,2.3377 1.015822,2.09796 1.624656,4.20044 1.906254,6.58283 0.0551,0.46612 0.07863,1.13339 0.09781,2.77283 0.0243,2.07766 0.02861,2.16626 0.11439,2.35165 0.172845,0.37356 0.483222,0.64206 0.861267,0.74506 0.147899,0.0403 1.120974,0.0506 4.193092,0.0442 l 4.0005,-0.008 z M 10.287,272.84635 c -0.3984994,-0.13101 -0.7879944,-0.49139 -0.9062704,-0.83851 -0.09514,-0.27923 -0.08605,-0.67885 0.02218,-0.97488 0.08503,-0.23259 0.237945,-0.39343 3.0162504,-3.17261 2.003648,-2.00428 2.986758,-2.9589 3.117178,-3.02683 0.162738,-0.0848 0.252191,-0.0992 0.613833,-0.0992 0.362103,0 0.450049,0.0143 0.608041,0.0986 0.448327,0.23921 0.725265,0.69899 0.725668,1.20478 4.58e-4,0.57179 0.172377,0.36903 -3.088203,3.6422 -2.218715,2.22728 -2.99668,2.9829 -3.156173,3.06552 -0.160683,0.0832 -0.288142,0.11279 -0.529166,0.12272 -0.174625,0.007 -0.365125,-0.003 -0.423334,-0.0217 z m 44.915666,0 c -0.05821,-0.0191 -0.182034,-0.0745 -0.275167,-0.12302 -0.246113,-0.12822 -5.952542,-5.85715 -6.081231,-6.10521 -0.142697,-0.27506 -0.143124,-0.86379 -8.46e-4,-1.1527 0.141384,-0.28707 0.44008,-0.56446 0.722587,-0.67104 0.340288,-0.12838 0.829911,-0.10176 1.129716,0.0614 0.286208,0.15577 5.936544,5.80586 6.065915,6.06565 0.334983,0.67266 0.04985,1.518 -0.619667,1.83715 -0.215977,0.10295 -0.745071,0.15228 -0.941316,0.0878 z M 1.013009,250.3889 C 0.39985896,250.22358 0,249.70095 0,249.06486 c 0,-0.48409 0.30719296,-0.96856 0.75292196,-1.18745 l 0.241911,-0.11879 H 5.228166 9.4614996 l 0.195682,0.0905 c 0.4821894,0.22296 0.7992524,0.69949 0.7988824,1.20069 -1.27e-4,0.15134 -0.01966,0.34522 -0.04344,0.43084 -0.06439,0.23181 -0.290958,0.54217 -0.5097274,0.69823 -0.385189,0.27477 -0.269315,0.26823 -4.6942076,0.26507 -3.030689,-0.002 -4.049158,-0.0155 -4.19568,-0.055 z m 55.752997,5.1e-4 c -0.402298,-0.10955 -0.699097,-0.34767 -0.898495,-0.72087 -0.07719,-0.14446 -0.0931,-0.24304 -0.09302,-0.57643 0,-0.35382 0.01366,-0.42794 0.113009,-0.61652 0.134904,-0.25607 0.396202,-0.50237 0.664655,-0.6265 l 0.195681,-0.0905 h 4.233333 4.233334 l 0.239627,0.11768 c 0.445965,0.219 0.713541,0.619 0.745948,1.11511 0.03787,0.57973 -0.225294,1.03995 -0.739415,1.29308 l -0.286648,0.14113 -4.107256,0.008 c -3.16589,0.006 -4.151604,-0.004 -4.300749,-0.0444 z M 15.790334,233.43402 c -0.319938,-0.10519 -0.598822,-0.36555 -3.391917,-3.16659 -3.2656984,-3.275 -3.0850834,-3.06195 -3.0850834,-3.6391 0,-0.50876 0.275762,-0.96788 0.7254594,-1.20782 0.157991,-0.0843 0.245938,-0.0986 0.608041,-0.0986 0.361641,0 0.451094,0.0145 0.613833,0.0992 0.130419,0.0679 1.113529,1.02255 3.117177,3.02683 2.778306,2.77918 2.931219,2.94002 3.01625,3.17261 0.18206,0.49798 0.09025,1.02142 -0.244539,1.39415 -0.264828,0.29485 -0.540327,0.42466 -0.935888,0.44096 -0.174625,0.007 -0.365125,-0.003 -0.423333,-0.0217 z m 33.908997,0 c -0.364384,-0.1198 -0.674077,-0.38316 -0.852457,-0.7249 -0.144492,-0.27682 -0.143951,-0.86058 0.0011,-1.16417 0.08042,-0.16833 0.695803,-0.80635 3.005668,-3.11621 3.194024,-3.19403 3.075101,-3.09166 3.62543,-3.12061 0.364257,-0.0192 0.584264,0.0365 0.852111,0.21548 0.507132,0.33893 0.703233,1.00505 0.477406,1.62167 -0.08805,0.24044 -0.215168,0.3742 -3.018494,3.17635 -2.378871,2.37788 -2.966183,2.94358 -3.138238,3.02277 -0.227356,0.10465 -0.755612,0.15435 -0.9525,0.0896 z m -17.022982,-7.04617 c -0.370573,-0.13848 -0.650756,-0.39455 -0.814107,-0.74404 -0.09099,-0.19468 -0.09109,-0.1986 -0.102677,-4.31861 -0.01037,-3.68522 -0.0044,-4.14864 0.05645,-4.35784 0.349683,-1.20287 1.961768,-1.32882 2.518126,-0.19674 l 0.104021,0.21167 v 4.23333 4.23333 l -0.117678,0.23963 c -0.13031,0.26536 -0.355308,0.49102 -0.631829,0.63368 -0.226615,0.11692 -0.779148,0.15272 -1.012309,0.0656 z"
       id="path837"
       inkscape:connector-curvature="0" />
  </g>
</svg>
