<?xml version="1.0" encoding="UTF-8" standalone="no"?>
<!-- Created with Inkscape (http://www.inkscape.org/) -->

<svg
   xmlns:dc="http://purl.org/dc/elements/1.1/"
   xmlns:cc="http://creativecommons.org/ns#"
   xmlns:rdf="http://www.w3.org/1999/02/22-rdf-syntax-ns#"
   xmlns:svg="http://www.w3.org/2000/svg"
   xmlns="http://www.w3.org/2000/svg"
   xmlns:sodipodi="http://sodipodi.sourceforge.net/DTD/sodipodi-0.dtd"
   xmlns:inkscape="http://www.inkscape.org/namespaces/inkscape"
   width="45.445mm"
   height="43.051998mm"
   viewBox="0 0 45.445 43.051998"
   version="1.1"
   id="svg8"
   inkscape:version="0.92.3 (2405546, 2018-03-11)"
   sodipodi:docname="prototype.svg">
  <defs
     id="defs2" />
  <sodipodi:namedview
     id="base"
     pagecolor="#ffffff"
     bordercolor="#666666"
     borderopacity="1.0"
     inkscape:pageopacity="0.0"
     inkscape:pageshadow="2"
     inkscape:zoom="0.68684764"
     inkscape:cx="396.85039"
     inkscape:cy="561.25984"
     inkscape:document-units="mm"
     inkscape:current-layer="layer1"
     showgrid="false"
     inkscape:window-width="1680"
     inkscape:window-height="987"
     inkscape:window-x="1272"
     inkscape:window-y="-8"
     inkscape:window-maximized="1" />
  <metadata
     id="metadata5">
    <rdf:RDF>
      <cc:Work
         rdf:about="">
        <dc:format>image/svg+xml</dc:format>
        <dc:type
           rdf:resource="http://purl.org/dc/dcmitype/StillImage" />
        <dc:title></dc:title>
      </cc:Work>
    </rdf:RDF>
  </metadata>
  <g
     inkscape:label="Layer 1"
     inkscape:groupmode="layer"
     id="layer1"
     transform="translate(0,-253.948)">
    <path
       style="fill:#000000;stroke-width:0.04233333"
       d="m 4.9159676,296.98082 c -0.374434,-0.0588 -0.773604,-0.2156 -1.088269,-0.42758 -0.404329,-0.27239 -3.23528801,-3.18168 -3.46948901,-3.5655 -0.535105,-0.87695 -0.464623,-2.07182 0.170751,-2.89474 0.110569,-0.14321 3.54430801,-3.53278 7.63053341,-7.53239 7.360769,-7.20473 9.488041,-9.28856 13.461847,-13.1869 1.129326,-1.10787 2.179382,-2.13163 2.333458,-2.27502 l 0.280137,-0.26069 2.070307,2.12685 c 2.546552,2.61611 2.816228,2.89683 2.814585,2.9298 -7.2e-4,0.0144 -2.5896,2.88764 -5.753071,6.38496 -3.163471,3.49732 -8.120059,8.97814 -11.01464,12.17959 -2.894582,3.20146 -5.3503964,5.89426 -5.4573664,5.984 -0.227506,0.19086 -0.571758,0.3722 -0.880681,0.46391 -0.276184,0.082 -0.814942,0.11815 -1.098102,0.0737 z M 39.528494,276.31814 c -0.583753,-0.11817 -0.842782,-0.29547 -1.575011,-1.07806 -0.648084,-0.69266 -0.828318,-0.96008 -0.942502,-1.39847 -0.128292,-0.49254 -0.07323,-0.80693 0.195175,-1.11429 0.185655,-0.21261 0.225113,-0.36666 0.194906,-0.76097 -0.04216,-0.55028 -0.362886,-1.1335 -0.97284,-1.76901 -0.652677,-0.68003 -1.473275,-1.19946 -2.233728,-1.41394 -0.444178,-0.12528 -1.120467,-0.15506 -1.498472,-0.066 -0.534618,0.12597 -0.735398,0.26832 -1.599583,1.13404 l -0.790888,0.7923 -2.003112,-1.97585 c -1.101711,-1.08672 -2.241232,-2.2093 -2.532267,-2.49463 l -0.529155,-0.51877 0.599652,-0.60456 c 0.86027,-0.86732 1.142728,-1.19926 1.312523,-1.54244 0.3156,-0.63789 0.284937,-1.27916 -0.09786,-2.04663 -0.174683,-0.35022 -0.258548,-0.45958 -0.649283,-0.84666 -1.236751,-1.2252 -3.006389,-2.31115 -4.953885,-3.03999 -1.530599,-0.57281 -3.454156,-0.98294 -4.937736,-1.05279 l -0.556236,-0.0262 -0.02546,-0.46993 c -0.014,-0.25847 -0.0304,-0.61281 -0.03643,-0.78744 l -0.01097,-0.3175 0.465667,-0.11663 c 1.322513,-0.33125 3.094002,-0.63465 4.550833,-0.77941 1.029624,-0.10232 3.273038,-0.10238 4.184263,-1.2e-4 2.87688,0.32285 5.213412,1.17411 7.262334,2.64585 0.74901,0.53801 1.472951,1.21451 3.820387,3.57002 2.315002,2.32297 2.466404,2.48402 2.549609,2.71203 0.119406,0.3272 0.163992,0.63882 0.216687,1.51443 0.09269,1.54014 0.243064,2.13026 0.702256,2.7558 0.354988,0.48359 1.108351,0.89598 1.84685,1.01097 0.277615,0.0432 0.287809,0.0414 0.486833,-0.0848 0.546562,-0.34669 1.250278,-0.33065 1.83057,0.0417 0.191474,0.12287 1.147877,1.12671 1.32632,1.3921 0.137876,0.20506 0.245428,0.48737 0.294336,0.77257 0.06405,0.37349 -0.0094,0.78878 -0.210448,1.19075 -0.135323,0.27049 -0.343357,0.49646 -2.142735,2.3274 -1.096075,1.1153 -2.077159,2.08366 -2.180189,2.1519 -0.388623,0.25741 -0.944895,0.3773 -1.360406,0.29318 z"
       id="path826"
       inkscape:connector-curvature="0" />
  </g>
</svg>
