<?xml version="1.0" encoding="UTF-8" standalone="no"?>
<!-- Created with Inkscape (http://www.inkscape.org/) -->

<svg
   xmlns:dc="http://purl.org/dc/elements/1.1/"
   xmlns:cc="http://creativecommons.org/ns#"
   xmlns:rdf="http://www.w3.org/1999/02/22-rdf-syntax-ns#"
   xmlns:svg="http://www.w3.org/2000/svg"
   xmlns="http://www.w3.org/2000/svg"
   xmlns:sodipodi="http://sodipodi.sourceforge.net/DTD/sodipodi-0.dtd"
   xmlns:inkscape="http://www.inkscape.org/namespaces/inkscape"
   width="72.546997mm"
   height="72.541mm"
   viewBox="0 0 72.546997 72.541"
   version="1.1"
   id="svg8"
   inkscape:version="0.92.3 (2405546, 2018-03-11)"
   sodipodi:docname="revise.svg">
  <defs
     id="defs2" />
  <sodipodi:namedview
     id="base"
     pagecolor="#ffffff"
     bordercolor="#666666"
     borderopacity="1.0"
     inkscape:pageopacity="0.0"
     inkscape:pageshadow="2"
     inkscape:zoom="2.8121166"
     inkscape:cx="137.09669"
     inkscape:cy="137.08536"
     inkscape:document-units="mm"
     inkscape:current-layer="layer1"
     showgrid="false"
     inkscape:window-width="1680"
     inkscape:window-height="987"
     inkscape:window-x="1272"
     inkscape:window-y="-8"
     inkscape:window-maximized="1" />
  <metadata
     id="metadata5">
    <rdf:RDF>
      <cc:Work
         rdf:about="">
        <dc:format>image/svg+xml</dc:format>
        <dc:type
           rdf:resource="http://purl.org/dc/dcmitype/StillImage" />
        <dc:title></dc:title>
      </cc:Work>
    </rdf:RDF>
  </metadata>
  <g
     inkscape:label="Layer 1"
     inkscape:groupmode="layer"
     id="layer1"
     transform="translate(0,-224.459)">
    <path
       style="fill:#000000;stroke-width:0.04233333"
       d="m 37.649983,296.96408 c 5.13688,-0.17463 10.04555,-1.44901 14.85813,-3.85746 3.64607,-1.82467 6.59978,-3.9413 9.37934,-6.72123 1.42641,-1.42659 2.21242,-2.32505 3.27919,-3.74828 3.72062,-4.9639 6.219721,-10.9353 7.045325,-16.83421 0.268107,-1.91563 0.361383,-3.52742 0.329084,-5.68654 -0.02953,-1.97385 -0.127892,-3.20562 -0.393886,-4.93242 -1.031306,-6.6951 -4.146163,-13.31961 -8.718473,-18.542 -0.63939,-0.73029 -2.37597,-2.46684 -3.08232,-3.08228 -2.86188,-2.49349 -5.96265,-4.46424 -9.48182,-6.0263 -3.82445,-1.69758 -7.43127,-2.62026 -11.7329,-3.00146 -0.80319,-0.0712 -3.96863,-0.0995 -4.90129,-0.0439 -4.53699,0.27055 -8.71944,1.31714 -12.96895,3.24528 -3.45858,1.56927 -6.8664,3.83092 -9.60566,6.37496 l -0.36891,0.34261 -2.1007597,-2.09294 c -4.66894,-4.65156 -4.62436,-4.61056 -5.24726,-4.82581 -0.24016,-0.083 -0.36501,-0.0974 -0.83284,-0.0958 -0.50758,0.002 -0.58158,0.0125 -0.9525,0.13936 -0.8526,0.29161 -1.50232004,0.81232 -1.81786004,1.4569 -0.35216,0.71943 -0.31822,-0.48349 -0.33242,11.77927 -0.009,7.96052 4.2e-4,11.01383 0.0352,11.26066 0.16551,1.17029 1.10668004,2.20877 2.27379004,2.50886 0.26767,0.0688 0.98476,0.0735 11.3347497,0.0735 10.65166,0 11.05965,-0.003 11.34533,-0.079 0.8681,-0.23148 1.45078,-0.73044 1.88515,-1.61431 0.49962,-1.01661 0.4978,-1.89847 -0.006,-2.76189 -0.10571,-0.18129 -1.03219,-1.13654 -3.61401,-3.72625 l -3.47187,-3.48248 0.19022,-0.16916 c 1.90991,-1.69855 3.63932,-2.88473 5.67238,-3.89062 2.67749,-1.32472 5.32943,-2.04644 8.59367,-2.33875 0.89182,-0.0799 3.34103,-0.0673 4.23333,0.0218 2.41696,0.24119 4.63067,0.7755 6.68867,1.61441 3.33922,1.36117 6.01738,3.1374 8.40358,5.57349 1.75333,1.78998 3.08258,3.6546 4.25112,5.9633 1.82466,3.60497 2.64152,6.98905 2.64152,10.94316 0,3.59718 -0.67142,6.68362 -2.17486,9.99757 -0.90543,1.99577 -2.06451,3.84674 -3.47766,5.55357 -0.62135,0.75048 -2.18588,2.32245 -2.9127,2.92655 -3.38161,2.81064 -7.44306,4.68653 -11.68373,5.39645 -1.35213,0.22636 -2.21664,0.29227 -3.87377,0.29536 -1.55992,0.003 -2.17298,-0.0319 -3.37985,-0.19161 -4.51961,-0.59827 -8.58801,-2.40559 -12.2452,-5.43971 -3.43007,-2.84569 -5.91752,-6.51872 -7.35608,-10.86217 -0.12861,-0.38829 -0.27385,-0.78444 -0.32277,-0.88033 -0.14191,-0.27816 -0.36042,-0.48785 -0.64568,-0.61959 l -0.26509,-0.12242 -4.7836597,-0.0124 c -3.05329,-0.008 -4.91095,0.003 -5.13554,0.0305 -0.58107,0.0709 -0.95789,0.34381 -1.22460004,0.8869 -0.0917,0.18682 -0.11974,0.31075 -0.13027,0.57663 -0.0119,0.30196 0.0163,0.45566 0.26059004,1.41817 1.07807,4.24751 2.77125,8.04752 5.14003,11.53583 1.95143,2.87372 4.4547297,5.6054 7.1086497,7.75719 3.0782,2.49578 6.7003,4.53133 10.5123,5.90769 3.51518,1.26919 7.09104,1.94999 11.049,2.10359 1.17016,0.0454 1.33465,0.0453 2.7305,-0.002 z"
       id="path826"
       inkscape:connector-curvature="0" />
  </g>
</svg>
