<?xml version="1.0" encoding="UTF-8" standalone="no"?>
<!-- Created with Inkscape (http://www.inkscape.org/) -->

<svg
   xmlns:dc="http://purl.org/dc/elements/1.1/"
   xmlns:cc="http://creativecommons.org/ns#"
   xmlns:rdf="http://www.w3.org/1999/02/22-rdf-syntax-ns#"
   xmlns:svg="http://www.w3.org/2000/svg"
   xmlns="http://www.w3.org/2000/svg"
   xmlns:sodipodi="http://sodipodi.sourceforge.net/DTD/sodipodi-0.dtd"
   xmlns:inkscape="http://www.inkscape.org/namespaces/inkscape"
   width="55.854mm"
   height="81.250999mm"
   viewBox="0 0 55.854 81.250999"
   version="1.1"
   id="svg8"
   inkscape:version="0.92.3 (2405546, 2018-03-11)"
   sodipodi:docname="spec.svg">
  <defs
     id="defs2" />
  <sodipodi:namedview
     id="base"
     pagecolor="#ffffff"
     bordercolor="#666666"
     borderopacity="1.0"
     inkscape:pageopacity="0.0"
     inkscape:pageshadow="2"
     inkscape:zoom="0.68684764"
     inkscape:cx="396.85039"
     inkscape:cy="561.25984"
     inkscape:document-units="mm"
     inkscape:current-layer="layer1"
     showgrid="false"
     inkscape:window-width="1680"
     inkscape:window-height="987"
     inkscape:window-x="1272"
     inkscape:window-y="-8"
     inkscape:window-maximized="1" />
  <metadata
     id="metadata5">
    <rdf:RDF>
      <cc:Work
         rdf:about="">
        <dc:format>image/svg+xml</dc:format>
        <dc:type
           rdf:resource="http://purl.org/dc/dcmitype/StillImage" />
        <dc:title></dc:title>
      </cc:Work>
    </rdf:RDF>
  </metadata>
  <g
     inkscape:label="Layer 1"
     inkscape:groupmode="layer"
     id="layer1"
     transform="translate(0,-215.749)">
    <path
       style="fill:#000000;stroke-width:0.04233333"
       d="m 0.85567543,296.93 c -0.4252,-0.14707 -0.727295,-0.48334 -0.818759,-0.91136 -0.03342,-0.15641 -0.04278,-11.24168 -0.03357,-39.77734 l 0.01276,-39.5605 0.118114,-0.24052 c 0.133815,-0.2725 0.338918,-0.47135 0.620568,-0.60167 l 0.192651,-0.0891 H 20.949935 c 18.99599,0 20.00996,0.004 20.15067,0.0744 0.62304,0.31277 0.88542,0.53003 7.62807,6.31657 6.06018,5.20083 6.9108,5.94519 7.01102,6.13517 l 0.11408,0.21621 v 33.782 33.782 l -0.11812,0.24052 c -0.13381,0.27249 -0.33892,0.47135 -0.62057,0.60167 l -0.19265,0.0891 -26.924,0.009 c -25.7603196,0.009 -26.9334506,0.006 -27.14275457,-0.0664 z M 53.334935,262.29551 v -32.17279 l -6.29709,-0.0111 -6.29708,-0.0111 -0.19265,-0.0891 c -0.28165,-0.13032 -0.48675,-0.32918 -0.62057,-0.60167 l -0.11811,-0.24052 -0.0112,-5.45042 -0.0112,-5.45041 H 21.160975 2.5349344 v 38.1 38.1 h 25.4000006 25.4 z m -41.76183,11.8018 c -0.425871,-0.14915 -0.651303,-0.5923 -0.527055,-1.03607 0.07174,-0.25623 0.302407,-0.4896 0.551155,-0.55761 0.1457,-0.0398 3.81147,-0.0486 16.42239,-0.0394 15.82426,0.0116 16.23891,0.0139 16.39598,0.0919 0.20447,0.10157 0.3484,0.28987 0.41667,0.54514 0.0979,0.36614 -0.0848,0.78094 -0.41667,0.94578 -0.15712,0.078 -0.56763,0.0802 -16.43831,0.0874 -11.28405,0.005 -16.31612,-0.006 -16.40416,-0.0371 z m 0,-11.85334 c -0.425871,-0.14915 -0.651303,-0.5923 -0.527055,-1.03606 0.07174,-0.25623 0.302407,-0.4896 0.551155,-0.55761 0.1457,-0.0398 3.81147,-0.0486 16.42239,-0.0394 15.82426,0.0116 16.23891,0.0139 16.39598,0.0919 0.20447,0.10156 0.3484,0.28987 0.41667,0.54514 0.0979,0.36614 -0.0848,0.78094 -0.41667,0.94578 -0.15712,0.078 -0.56763,0.0802 -16.43831,0.0874 -11.28405,0.005 -16.31612,-0.006 -16.40416,-0.0371 z m 0,-10.16 c -0.425871,-0.14915 -0.651303,-0.5923 -0.527055,-1.03606 0.07174,-0.25623 0.302407,-0.4896 0.551155,-0.55761 0.1457,-0.0398 3.81147,-0.0486 16.42239,-0.0394 15.82426,0.0116 16.23891,0.0139 16.39598,0.0919 0.20447,0.10156 0.3484,0.28987 0.41667,0.54514 0.0979,0.36614 -0.0848,0.78094 -0.41667,0.94578 -0.15712,0.078 -0.56763,0.0802 -16.43831,0.0874 -11.28405,0.005 -16.31612,-0.006 -16.40416,-0.0371 z m 0,-11.85333 c -0.425871,-0.14915 -0.651303,-0.5923 -0.527055,-1.03607 0.07174,-0.25623 0.302407,-0.48959 0.551155,-0.5576 0.1457,-0.0398 3.81147,-0.0486 16.42239,-0.0394 15.82426,0.0116 16.23891,0.0139 16.39598,0.0919 0.20447,0.10156 0.3484,0.28987 0.41667,0.54514 0.0979,0.36613 -0.0848,0.78094 -0.41667,0.94577 -0.15712,0.078 -0.56763,0.0802 -16.43831,0.0874 -11.28405,0.005 -16.31612,-0.006 -16.40416,-0.0371 z"
       id="path826"
       inkscape:connector-curvature="0" />
  </g>
</svg>
